<svg xmlns="http://www.w3.org/2000/svg" width="64" height="80" viewBox="0 0 64 80">
  <g transform="translate(10,6)">
    <rect x="16" y="30" width="12" height="36" rx="5" fill="#1B1464"/>
    <circle cx="22" cy="13" r="10" fill="#F7B11E"/>
    <rect x="18" y="1" width="8" height="5" rx="1.2" fill="#F7B11E"/>
    <rect x="18" y="19" width="8" height="5" rx="1.2" fill="#F7B11E"/>
    <rect x="10" y="9" width="5" height="8" rx="1.2" fill="#F7B11E"/>
    <rect x="29" y="9" width="5" height="8" rx="1.2" fill="#F7B11E"/>
    <rect x="11" y="2.5" width="5" height="5" rx="1.2" fill="#F7B11E" transform="rotate(45 13.5 5)"/>
    <rect x="28" y="2.5" width="5" height="5" rx="1.2" fill="#F7B11E" transform="rotate(45 30.5 5)"/>
    <rect x="11" y="18" width="5" height="5" rx="1.2" fill="#F7B11E" transform="rotate(45 13.5 20.5)"/>
    <rect x="28" y="18" width="5" height="5" rx="1.2" fill="#F7B11E" transform="rotate(45 30.5 20.5)"/>
    <circle cx="22" cy="13" r="5" fill="#FFFFFF"/>
    <circle cx="22" cy="13" r="2.2" fill="#F7B11E"/>
  </g>
</svg>
