<svg xmlns="http://www.w3.org/2000/svg" width="400" height="80" viewBox="0 0 400 80">
  <g transform="translate(6,6)">
    <!-- "i" stem -->
    <rect x="16" y="28" width="12" height="34" rx="5" fill="#1B1464"/>
    <!-- Gear dot -->
    <circle cx="22" cy="12" r="9" fill="#F7B11E"/>
    <rect x="18.5" y="1" width="7" height="4.5" rx="1.2" fill="#F7B11E"/>
    <rect x="18.5" y="17" width="7" height="4.5" rx="1.2" fill="#F7B11E"/>
    <rect x="11" y="8.5" width="4.5" height="7" rx="1.2" fill="#F7B11E"/>
    <rect x="28.5" y="8.5" width="4.5" height="7" rx="1.2" fill="#F7B11E"/>
    <rect x="12" y="2.5" width="4.5" height="4.5" rx="1.2" fill="#F7B11E" transform="rotate(45 14.25 4.75)"/>
    <rect x="27.5" y="2.5" width="4.5" height="4.5" rx="1.2" fill="#F7B11E" transform="rotate(45 29.75 4.75)"/>
    <rect x="12" y="16" width="4.5" height="4.5" rx="1.2" fill="#F7B11E" transform="rotate(45 14.25 18.25)"/>
    <rect x="27.5" y="16" width="4.5" height="4.5" rx="1.2" fill="#F7B11E" transform="rotate(45 29.75 18.25)"/>
    <circle cx="22" cy="12" r="4.5" fill="#FFFFFF"/>
    <circle cx="22" cy="12" r="2" fill="#F7B11E"/>
    <!-- Growth arrow -->
    <path d="M36 50 L42 34 L48 38" stroke="#91B240" stroke-width="2" stroke-linecap="round" stroke-linejoin="round" fill="none"/>
    <path d="M39 32 L42 34 L44 31" stroke="#91B240" stroke-width="1.6" stroke-linecap="round" stroke-linejoin="round" fill="none" opacity=".7"/>
  </g>
  <!-- Text -->
  <text x="68" y="28" font-family="'Playfair Display', 'Georgia', serif" font-size="11" font-weight="600" fill="#91B240" letter-spacing="4">JORNAL</text>
  <text x="68" y="58" font-family="'Playfair Display', 'Georgia', serif" font-size="32" font-weight="800" fill="#1B1464">O Inovador</text>
  <line x1="68" y1="64" x2="310" y2="64" stroke="#1B1464" stroke-width="1.2"/>
  <text x="68" y="76" font-family="'DM Sans', 'Helvetica Neue', sans-serif" font-size="8.5" font-weight="500" fill="#1B1464" letter-spacing="2" opacity=".5">INOVAÇÃO &amp; EMPREENDEDORISMO</text>
</svg>
